<?xml version="1.0" encoding="UTF-8"?>
<!DOCTYPE svg PUBLIC "-//W3C//DTD SVG 1.1//EN" "http://www.w3.org/Graphics/SVG/1.1/DTD/svg11.dtd">
<svg xmlns="http://www.w3.org/2000/svg" version="1.1" width="1024px" height="1024px" style="shape-rendering:geometricPrecision; text-rendering:geometricPrecision; image-rendering:optimizeQuality; fill-rule:evenodd; clip-rule:evenodd" xmlns:xlink="http://www.w3.org/1999/xlink">
<g><path style="opacity:1" fill="currentColor" d="M 510.5,169.5 C 554.398,204.549 604.398,226.383 660.5,235C 681.698,238.707 703.031,241.207 724.5,242.5C 725.051,283.168 725.718,323.834 726.5,364.5C 726.076,393.865 724.909,423.198 723,452.5C 713.871,560.671 664.038,643.838 573.5,702C 553.562,714.47 532.896,725.636 511.5,735.5C 461.215,713.61 417.048,682.944 379,643.5C 332.103,588.662 305.77,524.995 300,452.5C 298.091,423.198 296.924,393.865 296.5,364.5C 297.282,323.834 297.949,283.168 298.5,242.5C 348.202,240.193 396.202,230.027 442.5,212C 464.64,201.77 485.64,189.77 505.5,176C 507.79,174.223 509.457,172.056 510.5,169.5 Z M 510.5,195.5 C 534.569,212.123 560.403,225.789 588,236.5C 626.235,249.047 665.402,257.047 705.5,260.5C 706.732,294.153 707.399,327.82 707.5,361.5C 710.224,418.935 703.724,475.269 688,530.5C 672.96,576.85 647.46,616.35 611.5,649C 581.332,675.26 547.998,696.76 511.5,713.5C 465.63,692.47 425.13,663.803 390,627.5C 350.977,581.756 327.977,528.756 321,468.5C 316.507,432.979 314.673,397.313 315.5,361.5C 315.601,327.82 316.268,294.153 317.5,260.5C 358.132,257.007 397.799,248.84 436.5,236C 463.218,225.816 487.884,212.316 510.5,195.5 Z"/></g>
<g><path style="opacity:0.998" fill="currentColor" d="M 457.5,837.5 C 459.509,838.741 461.175,840.408 462.5,842.5C 459.716,843.392 457.216,843.392 455,842.5C 442.849,836.175 430.682,830.008 418.5,824C 407.345,819.946 396.678,820.779 386.5,826.5C 381.676,832.157 376.343,837.323 370.5,842C 369.5,842.667 368.5,842.667 367.5,842C 365.983,840.315 364.316,838.815 362.5,837.5C 354.198,844.296 344.865,849.129 334.5,852C 320.582,853.925 316.416,848.425 322,835.5C 324.333,832.167 326.667,828.833 329,825.5C 329.494,823.866 329.66,822.199 329.5,820.5C 326.432,820.547 323.432,821.047 320.5,822C 311.343,826.412 302.343,831.078 293.5,836C 284.382,839.635 275.048,840.635 265.5,839C 263.848,837.53 262.848,835.697 262.5,833.5C 263.979,828.397 265.646,823.397 267.5,818.5C 255.341,818.235 243.674,815.735 232.5,811C 224.588,806.284 223.088,800.117 228,792.5C 239.526,782.251 253.026,778.417 268.5,781C 274.881,782.345 281.215,783.845 287.5,785.5C 286.372,782.562 285.205,779.562 284,776.5C 283.41,770.765 286.077,768.432 292,769.5C 300.19,769.839 308.024,771.673 315.5,775C 324.167,780.333 332.833,785.667 341.5,791C 346.418,793.482 350.918,792.982 355,789.5C 357,787.5 357,785.5 355,783.5C 352.5,781 350,778.5 347.5,776C 336.5,768.333 325.5,760.667 314.5,753C 306.747,749.394 298.58,747.56 290,747.5C 274.572,749.852 259.405,753.352 244.5,758C 227.426,760.794 223.426,754.794 232.5,740C 231.833,739.833 231.167,739.667 230.5,739.5C 220.786,743.571 210.786,746.738 200.5,749C 192.119,749.787 183.786,749.454 175.5,748C 162.662,742.318 161.329,734.652 171.5,725C 173.167,724.167 174.833,723.333 176.5,722.5C 177.521,721.998 177.688,721.332 177,720.5C 167.616,718.526 158.45,715.693 149.5,712C 143.377,708.211 138.21,703.378 134,697.5C 130.649,689.812 133.149,684.979 141.5,683C 158.62,678.303 174.954,680.136 190.5,688.5C 191.167,688.167 191.833,687.833 192.5,687.5C 187.282,680.287 188.949,676.287 197.5,675.5C 202.455,675.59 207.121,676.757 211.5,679C 219.718,684.212 227.052,690.545 233.5,698C 237.724,701.519 242.557,703.686 248,704.5C 248.75,703.874 249.584,703.374 250.5,703C 251.617,699.927 251.784,696.76 251,693.5C 244.462,679.956 235.295,668.456 223.5,659C 211.336,652.475 198.336,649.308 184.5,649.5C 175.057,651.128 165.723,650.628 156.5,648C 151.74,645.609 150.574,642.109 153,637.5C 155.043,635.288 157.209,633.288 159.5,631.5C 144.274,631.267 129.607,628.434 115.5,623C 113.241,621.285 111.074,619.452 109,617.5C 106.46,612.903 107.293,609.07 111.5,606C 117.093,603.367 122.759,601.033 128.5,599C 123.004,595.084 117.337,591.418 111.5,588C 99.6991,578.235 92.6991,565.735 90.5,550.5C 90.627,547.613 91.627,545.113 93.5,543C 111.315,542.242 127.148,547.409 141,558.5C 142.479,557.244 144.145,556.244 146,555.5C 146.833,555.667 147.667,555.833 148.5,556C 153.991,562.648 158.991,569.648 163.5,577C 165.701,577.825 167.534,577.325 169,575.5C 170.819,566.258 169.152,557.591 164,549.5C 157.878,539.711 150.045,531.544 140.5,525C 128.798,521.655 117.465,517.321 106.5,512C 98.5892,507.091 92.4226,500.591 88,492.5C 86.605,488.5 86.4383,484.5 87.5,480.5C 89.2199,479.066 91.2199,478.233 93.5,478C 97.8711,477.828 102.204,477.328 106.5,476.5C 99.8944,471.233 93.561,465.566 87.5,459.5C 82.9515,452.689 80.2849,445.189 79.5,437C 79.2344,425.784 84.5677,421.784 95.5,425C 103.731,427.447 111.064,431.447 117.5,437C 123.5,443.667 129.5,450.333 135.5,457C 137.298,458.505 139.132,458.672 141,457.5C 143.64,439.762 138.14,424.929 124.5,413C 116.167,406.667 107.833,400.333 99.5,394C 93.5107,388.346 88.6774,381.846 85,374.5C 84.3333,371.5 84.3333,368.5 85,365.5C 88.3539,364.189 91.8539,363.356 95.5,363C 96.1667,362.333 96.8333,361.667 97.5,361C 91.0505,349.658 87.8838,337.491 88,324.5C 87.8726,318.798 90.5392,315.465 96,314.5C 106.483,315.909 114.817,320.909 121,329.5C 126.171,337.172 130.838,345.172 135,353.5C 140.186,358.12 143.853,357.12 146,350.5C 147.398,338.226 144.731,326.893 138,316.5C 127.834,304.977 121.167,291.644 118,276.5C 116.807,267.232 117.807,258.232 121,249.5C 125.592,243.653 131.092,242.82 137.5,247C 143.531,251.692 148.031,257.525 151,264.5C 152.875,272.214 154.875,279.881 157,287.5C 158.466,289.325 160.299,289.825 162.5,289C 165.231,286.374 167.064,283.207 168,279.5C 168.667,272.833 168.667,266.167 168,259.5C 166.365,250.39 165.199,241.223 164.5,232C 163.997,219.831 167.997,209.498 176.5,201C 178.5,200.333 180.5,200.333 182.5,201C 186.12,208.022 189.453,215.189 192.5,222.5C 195.458,216.82 197.958,210.82 200,204.5C 208.489,188.514 221.655,179.347 239.5,177C 240,177.5 240.5,178 241,178.5C 242.359,192.397 239.026,205.063 231,216.5C 227.153,221.011 223.32,225.511 219.5,230C 219.645,230.772 219.978,231.439 220.5,232C 227.626,231.746 234.292,233.246 240.5,236.5C 241.97,240.738 241.47,244.738 239,248.5C 226.835,260.501 212.669,269.335 196.5,275C 188.767,278.974 183.767,285.14 181.5,293.5C 182.198,296.198 183.864,297.864 186.5,298.5C 193.062,295.719 199.729,293.219 206.5,291C 213.994,288.681 221.328,289.015 228.5,292C 234.091,296.364 234.924,301.531 231,307.5C 224.833,319 216,327.833 204.5,334C 196.833,337.667 189.167,341.333 181.5,345C 166.499,354.502 159.666,368.002 161,385.5C 164.043,387.908 167.209,388.074 170.5,386C 176.167,379 181.833,372 187.5,365C 199.732,356.303 212.899,354.136 227,358.5C 228.988,373.722 223.821,386.222 211.5,396C 206.833,399 202.167,402 197.5,405C 208.722,408.724 209.389,414.058 199.5,421C 183.152,425.028 171.318,434.528 164,449.5C 158.08,463.239 158.08,476.906 164,490.5C 168.214,496.11 171.547,495.777 174,489.5C 173.957,479.499 175.623,469.833 179,460.5C 180.405,458.349 182.239,456.682 184.5,455.5C 186.204,457.041 188.037,458.375 190,459.5C 195.962,452.207 203.128,446.373 211.5,442C 223.076,438.226 228.076,442.559 226.5,455C 225.981,470.738 220.315,484.238 209.5,495.5C 213.459,496.327 217.459,496.827 221.5,497C 222.804,497.804 223.471,498.971 223.5,500.5C 221.756,507.321 218.923,513.655 215,519.5C 207.857,527.131 201.19,535.131 195,543.5C 187.656,563.304 189.323,582.304 200,600.5C 200.667,601.833 200.667,603.167 200,604.5C 188.62,588.196 181.453,570.196 178.5,550.5C 179.787,535.761 186.787,524.594 199.5,517C 193.045,518.901 187.378,522.401 182.5,527.5C 182.167,526.667 181.833,525.833 181.5,525C 185.697,503.445 194.364,483.945 207.5,466.5C 207.333,466.167 207.167,465.833 207,465.5C 199.793,473.705 193.793,482.705 189,492.5C 182.731,508.922 177.398,525.589 173,542.5C 162.8,514.199 156.634,485.033 154.5,455C 154.859,443.926 158.025,433.759 164,424.5C 175.578,408.09 188.745,393.09 203.5,379.5C 203.333,379.167 203.167,378.833 203,378.5C 181.995,394.166 165.328,413.5 153,436.5C 150.633,409.741 151.633,383.074 156,356.5C 155.981,346.034 160.481,338.2 169.5,333C 182.831,323.999 196.498,315.499 210.5,307.5C 210.167,307.167 209.833,306.833 209.5,306.5C 192.496,313.865 176.496,322.865 161.5,333.5C 164.035,312.39 170.535,292.39 181,273.5C 183.883,268.95 187.716,265.45 192.5,263C 202.959,257.937 213.292,252.604 223.5,247C 212.302,250.737 201.135,254.904 190,259.5C 189.5,259.167 189,258.833 188.5,258.5C 198.561,238.706 209.895,219.706 222.5,201.5C 221.645,200.707 220.811,201.04 220,202.5C 217.333,205.833 214.667,209.167 212,212.5C 203.163,226.844 193.83,240.844 184,254.5C 181.888,246.788 179.888,239.122 178,231.5C 179.324,242.773 179.991,254.107 180,265.5C 172.032,280.432 166.032,296.099 162,312.5C 160.882,315.855 159.382,319.022 157.5,322C 156.517,322.591 155.85,322.257 155.5,321C 148.799,303.767 141.966,286.6 135,269.5C 134.333,271.167 134.333,272.833 135,274.5C 142.804,293.08 149.304,312.08 154.5,331.5C 149.598,355.287 146.598,379.287 145.5,403.5C 146.46,404.812 146.294,406.146 145,407.5C 133.428,384.346 120.261,363.179 105.5,344C 114.5,360.333 123.5,376.667 132.5,393C 132.167,393.5 131.833,394 131.5,394.5C 122.411,387.527 112.411,382.694 101.5,380C 110.669,385.417 119.669,391.083 128.5,397C 137.76,403.923 143.26,413.09 145,424.5C 147.927,446.102 150.26,467.769 152,489.5C 153.447,494.481 154.447,499.481 155,504.5C 137.745,483.243 119.078,463.243 99,444.5C 99.3269,447.542 100.66,450.209 103,452.5C 119.018,467.61 133.518,484.11 146.5,502C 146,502.5 145.5,503 145,503.5C 131.346,497.878 117.179,494.378 102.5,493C 114.003,497.127 125.67,500.794 137.5,504C 145.102,506.94 151.602,511.44 157,517.5C 164.589,539.598 172.589,561.598 181,583.5C 187.601,597.204 195.101,610.371 203.5,623C 199.367,621.6 195.367,619.6 191.5,617C 165.333,597.942 138.667,579.942 111.5,563C 131.694,580.866 153.028,597.2 175.5,612C 168.507,612.041 161.673,611.874 155,611.5C 145.826,612.037 136.659,612.703 127.5,613.5C 143.204,614.627 158.87,616.127 174.5,618C 186.977,619.834 197.644,625.167 206.5,634C 199.833,634.333 193.167,634.667 186.5,635C 183.711,635.241 181.044,635.908 178.5,637C 191.219,635.674 203.552,637.341 215.5,642C 231.36,660.892 246.86,680.059 262,699.5C 272.545,710.493 283.712,720.66 295.5,730C 287.729,729.58 280.062,728.247 272.5,726C 261.357,721.884 250.023,718.217 238.5,715C 230.175,711.004 222.675,705.838 216,699.5C 215.333,700.167 215.333,700.833 216,701.5C 220.39,705.344 223.89,709.344 226.5,713.5C 203.397,708.308 180.397,702.641 157.5,696.5C 156.833,696.667 156.167,696.833 155.5,697C 179.824,705.663 204.491,713.33 229.5,720C 215.034,726.482 200.201,731.982 185,736.5C 183.743,736.85 183.409,737.517 184,738.5C 199.503,734.889 214.669,730.055 229.5,724C 237.918,721.926 246.251,722.26 254.5,725C 261.918,728.105 269.585,730.439 277.5,732C 278.833,732.667 278.833,733.333 277.5,734C 268.352,737.742 259.352,741.742 250.5,746C 259.977,742.783 269.643,739.783 279.5,737C 287.09,736.051 294.423,737.051 301.5,740C 323.733,753.282 344.733,768.282 364.5,785C 375.369,791.6 386.369,797.933 397.5,804C 397,804.5 396.5,805 396,805.5C 376.727,804.327 357.227,802.827 337.5,801C 328.99,797.495 320.823,793.328 313,788.5C 312.5,788.667 312,788.833 311.5,789C 316.652,793.408 321.985,797.575 327.5,801.5C 325.667,801.833 323.833,802.167 322,802.5C 303.019,800.922 284.019,799.589 265,798.5C 257.737,798.554 250.571,799.387 243.5,801C 266.477,801.252 289.144,803.586 311.5,808C 302.03,812.132 293.03,817.132 284.5,823C 283.304,823.654 283.304,824.154 284.5,824.5C 296.981,817.73 309.981,812.23 323.5,808C 340.222,806.516 356.888,807.183 373.5,810C 363.106,816.393 353.273,823.56 344,831.5C 343.312,832.332 343.479,832.998 344.5,833.5C 355.245,825.126 366.912,818.293 379.5,813C 390.819,811.054 402.153,811.054 413.5,813C 427.992,821.414 442.658,829.581 457.5,837.5 Z"/></g>
<g><path style="opacity:0.998" fill="currentColor" d="M 565.5,837.5 C 580.342,829.581 595.008,821.414 609.5,813C 620.847,811.054 632.181,811.054 643.5,813C 656.088,818.293 667.755,825.126 678.5,833.5C 679.521,832.998 679.688,832.332 679,831.5C 669.727,823.56 659.894,816.393 649.5,810C 666.112,807.183 682.778,806.516 699.5,808C 713.019,812.23 726.019,817.73 738.5,824.5C 739.696,824.154 739.696,823.654 738.5,823C 729.97,817.132 720.97,812.132 711.5,808C 733.856,803.586 756.523,801.252 779.5,801C 772.429,799.387 765.263,798.554 758,798.5C 738.981,799.589 719.981,800.922 701,802.5C 699.167,802.167 697.333,801.833 695.5,801.5C 701.015,797.575 706.348,793.408 711.5,789C 711,788.833 710.5,788.667 710,788.5C 702.177,793.328 694.01,797.495 685.5,801C 665.773,802.827 646.273,804.327 627,805.5C 626.5,805 626,804.5 625.5,804C 635.468,798.347 645.468,792.681 655.5,787C 664.456,780.379 673.123,773.379 681.5,766C 694.833,757.333 708.167,748.667 721.5,740C 728.577,737.051 735.91,736.051 743.5,737C 753.357,739.783 763.023,742.783 772.5,746C 763.648,741.742 754.648,737.742 745.5,734C 744.167,733.333 744.167,732.667 745.5,732C 753.415,730.439 761.082,728.105 768.5,725C 776.749,722.26 785.082,721.926 793.5,724C 808.331,730.055 823.497,734.889 839,738.5C 839.591,737.517 839.257,736.85 838,736.5C 822.799,731.982 807.966,726.482 793.5,720C 818.509,713.33 843.176,705.663 867.5,697C 866.833,696.833 866.167,696.667 865.5,696.5C 842.295,702.969 818.962,708.469 795.5,713C 799.333,709.167 803.167,705.333 807,701.5C 807.667,700.833 807.667,700.167 807,699.5C 800.325,705.838 792.825,711.004 784.5,715C 772.977,718.217 761.643,721.884 750.5,726C 742.938,728.247 735.271,729.58 727.5,730C 739.288,720.66 750.455,710.493 761,699.5C 776.14,680.059 791.64,660.892 807.5,642C 819.448,637.341 831.781,635.674 844.5,637C 841.956,635.908 839.289,635.241 836.5,635C 829.833,634.667 823.167,634.333 816.5,634C 825.356,625.167 836.023,619.834 848.5,618C 864.13,616.127 879.796,614.627 895.5,613.5C 886.341,612.703 877.174,612.037 868,611.5C 861.327,611.874 854.493,612.041 847.5,612C 869.972,597.2 891.306,580.866 911.5,563C 884.333,579.942 857.667,597.942 831.5,617C 827.633,619.6 823.633,621.6 819.5,623C 827.899,610.371 835.399,597.204 842,583.5C 850.411,561.598 858.411,539.598 866,517.5C 871.398,511.44 877.898,506.94 885.5,504C 897.33,500.794 908.997,497.127 920.5,493C 905.821,494.378 891.654,497.878 878,503.5C 877.5,503 877,502.5 876.5,502C 889.482,484.11 903.982,467.61 920,452.5C 922.34,450.209 923.673,447.542 924,444.5C 903.922,463.243 885.255,483.243 868,504.5C 868.553,499.481 869.553,494.481 871,489.5C 872.74,467.769 875.073,446.102 878,424.5C 879.74,413.09 885.24,403.923 894.5,397C 903.331,391.083 912.331,385.417 921.5,380C 910.589,382.694 900.589,387.527 891.5,394.5C 891.167,394 890.833,393.5 890.5,393C 899.5,376.667 908.5,360.333 917.5,344C 902.739,363.179 889.572,384.346 878,407.5C 876.706,406.146 876.54,404.812 877.5,403.5C 876.402,379.287 873.402,355.287 868.5,331.5C 873.696,312.08 880.196,293.08 888,274.5C 888.667,272.833 888.667,271.167 888,269.5C 881.034,286.6 874.201,303.767 867.5,321C 867.15,322.257 866.483,322.591 865.5,322C 861.365,313.973 858.532,305.473 857,296.5C 852.608,286.048 847.941,275.715 843,265.5C 843.009,254.107 843.676,242.773 845,231.5C 843.112,239.122 841.112,246.788 839,254.5C 829.17,240.844 819.837,226.844 811,212.5C 807.667,208.5 804.333,204.5 801,200.5C 800.833,200.833 800.667,201.167 800.5,201.5C 813.105,219.706 824.439,238.706 834.5,258.5C 834,258.833 833.5,259.167 833,259.5C 821.865,254.904 810.698,250.737 799.5,247C 812.025,253.427 824.358,260.094 836.5,267C 843.682,276.192 849.182,286.359 853,297.5C 856.88,308.64 860.047,319.974 862.5,331.5C 862.167,332.167 861.833,332.833 861.5,333.5C 846.504,322.865 830.504,313.865 813.5,306.5C 813.167,306.833 812.833,307.167 812.5,307.5C 826.502,315.499 840.169,323.999 853.5,333C 862.519,338.2 867.019,346.034 867,356.5C 871.367,383.074 872.367,409.741 870,436.5C 857.672,413.5 841.005,394.166 820,378.5C 819.833,378.833 819.667,379.167 819.5,379.5C 834.255,393.09 847.422,408.09 859,424.5C 864.975,433.759 868.141,443.926 868.5,455C 866.366,485.033 860.2,514.199 850,542.5C 845.602,525.589 840.269,508.922 834,492.5C 829.207,482.705 823.207,473.705 816,465.5C 815.833,465.833 815.667,466.167 815.5,466.5C 828.636,483.945 837.303,503.445 841.5,525C 841.167,525.833 840.833,526.667 840.5,527.5C 835.622,522.401 829.955,518.901 823.5,517C 845.626,532.342 850.46,552.175 838,576.5C 834.032,586.438 829.032,595.771 823,604.5C 823.812,598.849 825.812,593.516 829,588.5C 833.854,573.384 833.52,558.384 828,543.5C 821.81,535.131 815.143,527.131 808,519.5C 804.077,513.655 801.244,507.321 799.5,500.5C 799.529,498.971 800.196,497.804 801.5,497C 805.541,496.827 809.541,496.327 813.5,495.5C 799.568,481.201 794.401,464.201 798,444.5C 798.465,443.069 799.299,441.903 800.5,441C 807.98,440.204 814.647,442.204 820.5,447C 825.022,450.855 829.188,455.022 833,459.5C 834.963,458.375 836.796,457.041 838.5,455.5C 843.24,458.499 846.073,462.832 847,468.5C 847.921,475.475 848.588,482.475 849,489.5C 851.453,495.777 854.786,496.11 859,490.5C 866.707,471.022 864.04,453.022 851,436.5C 843.277,428.886 834.111,423.719 823.5,421C 813.611,414.058 814.278,408.724 825.5,405C 817.142,400.313 809.642,394.48 803,387.5C 796.483,378.659 794.149,368.992 796,358.5C 810.101,354.136 823.268,356.303 835.5,365C 841.167,372 846.833,379 852.5,386C 858.352,388.905 862.019,387.239 863.5,381C 861.874,365.402 854.541,353.402 841.5,345C 829.098,339.967 817.431,333.633 806.5,326C 797.772,319.11 792.106,310.277 789.5,299.5C 791.037,294.464 794.37,291.297 799.5,290C 805.225,289.283 810.891,289.616 816.5,291C 823.271,293.219 829.938,295.719 836.5,298.5C 839.136,297.864 840.802,296.198 841.5,293.5C 839.233,285.14 834.233,278.974 826.5,275C 810.331,269.335 796.165,260.501 784,248.5C 780.647,243.692 780.814,239.192 784.5,235C 790.34,233.105 796.34,232.105 802.5,232C 803.022,231.439 803.355,230.772 803.5,230C 795.79,222.283 789.624,213.449 785,203.5C 781.875,195.421 780.875,187.087 782,178.5C 782.5,178 783,177.5 783.5,177C 801.345,179.347 814.511,188.514 823,204.5C 825.042,210.82 827.542,216.82 830.5,222.5C 833.547,215.189 836.88,208.022 840.5,201C 842.5,200.333 844.5,200.333 846.5,201C 855.003,209.498 859.003,219.831 858.5,232C 857.801,241.223 856.635,250.39 855,259.5C 854.333,266.167 854.333,272.833 855,279.5C 855.936,283.207 857.769,286.374 860.5,289C 862.701,289.825 864.534,289.325 866,287.5C 868.125,279.881 870.125,272.214 872,264.5C 876.282,254.043 883.782,247.377 894.5,244.5C 897.773,245.05 900.273,246.717 902,249.5C 907.55,266.027 906.216,282.027 898,297.5C 893.914,304.007 889.58,310.34 885,316.5C 878.269,326.893 875.602,338.226 877,350.5C 879.147,357.12 882.814,358.12 888,353.5C 893.681,340.328 901.847,328.995 912.5,319.5C 929.244,309.616 936.744,314.283 935,333.5C 933.221,343.17 930.055,352.336 925.5,361C 926.167,361.667 926.833,362.333 927.5,363C 931.146,363.356 934.646,364.189 938,365.5C 938.667,368.5 938.667,371.5 938,374.5C 935.499,379.506 932.499,384.173 929,388.5C 919.411,397.426 909.245,405.593 898.5,413C 884.86,424.929 879.36,439.762 882,457.5C 883.868,458.672 885.702,458.505 887.5,457C 893.5,450.333 899.5,443.667 905.5,437C 913.364,429.985 922.531,425.818 933,424.5C 935.63,424.464 938.13,424.964 940.5,426C 942.43,429.384 943.43,433.051 943.5,437C 942.715,445.189 940.048,452.689 935.5,459.5C 929.439,465.566 923.106,471.233 916.5,476.5C 920.796,477.328 925.129,477.828 929.5,478C 933.961,477.963 936.294,480.129 936.5,484.5C 936.342,490.137 934.509,495.137 931,499.5C 926.782,504.385 921.948,508.552 916.5,512C 905.535,517.321 894.202,521.655 882.5,525C 866.423,535.324 856.423,549.824 852.5,568.5C 852.819,571.645 853.819,574.478 855.5,577C 856.833,577.667 858.167,577.667 859.5,577C 864.009,569.648 869.009,562.648 874.5,556C 875.333,555.833 876.167,555.667 877,555.5C 878.855,556.244 880.521,557.244 882,558.5C 895.852,547.409 911.685,542.242 929.5,543C 931.373,545.113 932.373,547.613 932.5,550.5C 930.301,565.735 923.301,578.235 911.5,588C 905.663,591.418 899.996,595.084 894.5,599C 900.241,601.033 905.907,603.367 911.5,606C 915.707,609.07 916.54,612.903 914,617.5C 908.351,623.242 901.517,626.742 893.5,628C 883.548,629.58 873.548,630.747 863.5,631.5C 875.085,640.333 873.752,646.499 859.5,650C 845.139,648.991 830.805,649.658 816.5,652C 810.522,653.549 804.855,655.882 799.5,659C 787.705,668.456 778.538,679.956 772,693.5C 770.126,703.983 773.96,706.816 783.5,702C 790.429,697.075 796.762,691.408 802.5,685C 805.672,683.248 808.672,681.248 811.5,679C 818.39,675.308 825.39,674.808 832.5,677.5C 833.714,681.118 833.048,684.451 830.5,687.5C 831.167,687.833 831.833,688.167 832.5,688.5C 848.046,680.136 864.38,678.303 881.5,683C 889.851,684.979 892.351,689.812 889,697.5C 884.79,703.378 879.623,708.211 873.5,712C 864.55,715.693 855.384,718.526 846,720.5C 845.312,721.332 845.479,721.998 846.5,722.5C 852.63,725.3 856.63,729.966 858.5,736.5C 857.068,742.433 853.401,746.266 847.5,748C 839.214,749.454 830.881,749.787 822.5,749C 812.214,746.738 802.214,743.571 792.5,739.5C 791.833,739.667 791.167,739.833 790.5,740C 799.574,754.794 795.574,760.794 778.5,758C 763.595,753.352 748.428,749.852 733,747.5C 724.42,747.56 716.253,749.394 708.5,753C 697.5,760.667 686.5,768.333 675.5,776C 671.938,779.058 668.938,782.558 666.5,786.5C 667.739,790.406 670.406,792.406 674.5,792.5C 676.867,792.158 679.2,791.658 681.5,791C 690.167,785.667 698.833,780.333 707.5,775C 716.747,770.848 726.414,769.181 736.5,770C 739.08,771.481 739.913,773.648 739,776.5C 737.795,779.562 736.628,782.562 735.5,785.5C 741.785,783.845 748.119,782.345 754.5,781C 769.974,778.417 783.474,782.251 795,792.5C 799.912,800.117 798.412,806.284 790.5,811C 779.326,815.735 767.659,818.235 755.5,818.5C 757.354,823.397 759.021,828.397 760.5,833.5C 759.115,838.757 755.615,841.09 750,840.5C 742.992,839.765 736.159,838.265 729.5,836C 720.657,831.078 711.657,826.412 702.5,822C 699.568,821.047 696.568,820.547 693.5,820.5C 693.34,822.199 693.506,823.866 694,825.5C 698.361,830.725 701.528,836.558 703.5,843C 703.846,847.701 701.846,850.701 697.5,852C 690.911,852.771 684.577,851.771 678.5,849C 672.098,845.759 666.098,841.925 660.5,837.5C 658.684,838.815 657.017,840.315 655.5,842C 654.5,842.667 653.5,842.667 652.5,842C 646.657,837.323 641.324,832.157 636.5,826.5C 626.322,820.779 615.655,819.946 604.5,824C 592.318,830.008 580.151,836.175 568,842.5C 565.784,843.392 563.284,843.392 560.5,842.5C 561.825,840.408 563.491,838.741 565.5,837.5 Z"/></g>
<g><path style="opacity:1" fill="currentColor" d="M 493.5,259.5 C 505.5,259.5 517.5,259.5 529.5,259.5C 529.5,263.167 529.5,266.833 529.5,270.5C 517.5,270.5 505.5,270.5 493.5,270.5C 493.5,266.833 493.5,263.167 493.5,259.5 Z"/></g>
<g><path style="opacity:1" fill="currentColor" d="M 447.5,279.5 C 490.167,279.5 532.833,279.5 575.5,279.5C 575.5,297.833 575.5,316.167 575.5,334.5C 532.833,334.5 490.167,334.5 447.5,334.5C 447.5,316.167 447.5,297.833 447.5,279.5 Z"/></g>
<g><path style="opacity:1" fill="currentColor" d="M 362.5,303.5 C 380.372,303.34 392.872,311.34 400,327.5C 401.893,335.856 403.893,344.189 406,352.5C 407.769,345.812 409.936,339.312 412.5,333C 411.561,328.531 410.894,324.031 410.5,319.5C 424.243,324.079 433.076,333.412 437,347.5C 437.667,352.833 437.667,358.167 437,363.5C 435,366.833 432.333,369.5 429,371.5C 427.496,366.503 425.83,361.503 424,356.5C 422.299,364.306 420.132,371.973 417.5,379.5C 414.898,381.993 411.898,383.16 408.5,383C 396.195,374.563 390.029,362.73 390,347.5C 388.595,355.792 388.262,364.125 389,372.5C 390.059,375.618 391.392,378.618 393,381.5C 395.965,383.724 398.798,386.058 401.5,388.5C 397.956,392.207 393.956,395.374 389.5,398C 365.398,397.229 353.565,384.729 354,360.5C 355.499,354.505 356.999,348.505 358.5,342.5C 357.809,339.069 356.809,335.736 355.5,332.5C 357.475,331.422 359.308,331.755 361,333.5C 363.625,337.62 365.125,342.12 365.5,347C 364.031,353.226 364.198,359.393 366,365.5C 367,366.5 368,367.5 369,368.5C 369.167,368 369.333,367.5 369.5,367C 368.357,363.761 367.69,360.428 367.5,357C 368.377,350.035 369.877,343.202 372,336.5C 373.948,324.947 370.948,314.947 363,306.5C 362.517,305.552 362.351,304.552 362.5,303.5 Z"/></g>
<g><path style="opacity:1" fill="currentColor" d="M 654.5,303.5 C 656.5,303.5 658.5,303.5 660.5,303.5C 660.649,304.552 660.483,305.552 660,306.5C 652.052,314.947 649.052,324.947 651,336.5C 653.123,343.202 654.623,350.035 655.5,357C 655.31,360.428 654.643,363.761 653.5,367C 653.548,368.033 653.881,368.366 654.5,368C 656.487,366.681 657.654,364.848 658,362.5C 658.703,357.305 658.536,352.139 657.5,347C 657.875,342.12 659.375,337.62 662,333.5C 663.692,331.755 665.525,331.422 667.5,332.5C 666.191,335.736 665.191,339.069 664.5,342.5C 666.001,348.505 667.501,354.505 669,360.5C 669.435,384.729 657.602,397.229 633.5,398C 629.044,395.374 625.044,392.207 621.5,388.5C 624.202,386.058 627.035,383.724 630,381.5C 631.608,378.618 632.941,375.618 634,372.5C 634.738,364.125 634.405,355.792 633,347.5C 632.971,362.73 626.805,374.563 614.5,383C 611.102,383.16 608.102,381.993 605.5,379.5C 602.868,371.973 600.701,364.306 599,356.5C 597.17,361.503 595.504,366.503 594,371.5C 590.667,369.5 588,366.833 586,363.5C 583.398,346.879 588.898,333.712 602.5,324C 605.54,321.78 608.873,320.28 612.5,319.5C 612.106,324.031 611.439,328.531 610.5,333C 613.064,339.312 615.231,345.812 617,352.5C 619.107,344.189 621.107,335.856 623,327.5C 629.051,313.568 639.551,305.568 654.5,303.5 Z"/></g>
<g><path style="opacity:1" fill="currentColor" d="M 494.5,344.5 C 505.838,344.333 517.172,344.5 528.5,345C 529,345.5 529.5,346 530,346.5C 530.829,380.405 530.662,414.238 529.5,448C 517.258,448.821 505.091,448.654 493,447.5C 492.333,413.833 492.333,380.167 493,346.5C 493.717,345.956 494.217,345.289 494.5,344.5 Z"/></g>
<g><path style="opacity:1" fill="currentColor" d="M 441.5,369.5 C 443.144,369.286 444.644,369.62 446,370.5C 447.753,373.005 449.253,375.671 450.5,378.5C 430.763,392.389 410.596,405.722 390,418.5C 388,416.5 386,414.5 384,412.5C 383.289,410.633 383.789,409.133 385.5,408C 404.407,395.391 423.073,382.558 441.5,369.5 Z"/></g>
<g><path style="opacity:1" fill="currentColor" d="M 577.5,369.5 C 578.873,369.343 580.207,369.51 581.5,370C 600.167,382.667 618.833,395.333 637.5,408C 639.211,409.133 639.711,410.633 639,412.5C 637,414.5 635,416.5 633,418.5C 612.404,405.722 592.237,392.389 572.5,378.5C 573.925,375.312 575.592,372.312 577.5,369.5 Z"/></g>
<g><path style="opacity:1" fill="currentColor" d="M 442.5,389.5 C 444.017,389.511 445.184,390.177 446,391.5C 448.421,395.34 450.588,399.34 452.5,403.5C 440.648,413.017 428.148,421.684 415,429.5C 410.667,425.833 406.333,422.167 402,418.5C 401.493,417.004 401.993,415.837 403.5,415C 416.907,406.974 429.907,398.474 442.5,389.5 Z"/></g>
<g><path style="opacity:1" fill="currentColor" d="M 578.5,389.5 C 592.111,397.978 605.777,406.478 619.5,415C 621.007,415.837 621.507,417.004 621,418.5C 616.667,422.167 612.333,425.833 608,429.5C 594.852,421.684 582.352,413.017 570.5,403.5C 572.795,398.559 575.461,393.892 578.5,389.5 Z"/></g>
<g><path style="opacity:1" fill="currentColor" d="M 452.5,407.5 C 455.9,408.524 458.233,410.858 459.5,414.5C 448.221,423.147 436.554,431.313 424.5,439C 422.633,439.711 421.133,439.211 420,437.5C 419.15,435.99 418.317,434.49 417.5,433C 417.833,432.5 418.167,432 418.5,431.5C 430.152,423.831 441.485,415.831 452.5,407.5 Z"/></g>
<g><path style="opacity:1" fill="currentColor" d="M 567.5,407.5 C 580.803,414.955 593.469,423.455 605.5,433C 604.683,434.49 603.85,435.99 603,437.5C 601.867,439.211 600.367,439.711 598.5,439C 586.446,431.313 574.779,423.147 563.5,414.5C 564.861,412.15 566.194,409.816 567.5,407.5 Z"/></g>
<g><path style="opacity:1" fill="currentColor" d="M 453.5,424.5 C 454.822,424.33 455.989,424.663 457,425.5C 462.253,433.674 467.753,441.674 473.5,449.5C 464.66,451.733 455.66,453.4 446.5,454.5C 443.729,454.244 441.562,452.91 440,450.5C 437.617,446.895 435.117,443.395 432.5,440C 439.537,434.822 446.537,429.655 453.5,424.5 Z"/></g>
<g><path style="opacity:1" fill="currentColor" d="M 566.5,424.5 C 575.127,428.615 583.127,433.781 590.5,440C 587.229,444.943 583.562,449.609 579.5,454C 570.495,453.417 561.495,452.417 552.5,451C 551.376,450.751 550.376,450.251 549.5,449.5C 555.583,441.423 561.25,433.089 566.5,424.5 Z"/></g>
<g><path style="opacity:1" fill="currentColor" d="M 470.5,459.5 C 502.852,459.122 535.185,459.622 567.5,461C 594.569,464.813 621.569,469.147 648.5,474C 650.044,474.29 651.377,474.956 652.5,476C 558.5,475.333 464.5,475.333 370.5,476C 375.237,473.927 380.237,472.593 385.5,472C 402.594,469.515 419.594,466.515 436.5,463C 447.976,461.731 459.309,460.565 470.5,459.5 Z"/></g>
<g><path style="opacity:0.17" fill="currentColor" d="M 400.5,494.5 C 392.5,494.5 384.5,494.5 376.5,494.5C 376.5,496.167 376.5,497.833 376.5,499.5C 375.539,497.735 375.205,495.735 375.5,493.5C 384.017,493.174 392.35,493.507 400.5,494.5 Z"/></g>
<g><path style="opacity:1" fill="currentColor" d="M 598.5,492.5 C 611.681,490.42 623.514,493.42 634,501.5C 635.044,499.285 635.71,496.952 636,494.5C 637.726,493.424 639.559,493.257 641.5,494C 641.634,505.396 641.634,516.896 641.5,528.5C 639.5,528.5 637.5,528.5 635.5,528.5C 635.775,511.123 627.442,501.123 610.5,498.5C 603.631,499.017 598.131,502.017 594,507.5C 584.357,527.587 583.023,548.253 590,569.5C 595.567,582.799 604.9,586.466 618,580.5C 619.799,572.191 619.799,563.858 618,555.5C 614.835,552.574 611.002,551.241 606.5,551.5C 606.5,549.5 606.5,547.5 606.5,545.5C 620.5,545.5 634.5,545.5 648.5,545.5C 648.5,547.5 648.5,549.5 648.5,551.5C 644.691,551.534 642.857,553.534 643,557.5C 642.5,567.494 642.334,577.494 642.5,587.5C 640.5,587.5 638.5,587.5 636.5,587.5C 636.838,584.843 636.171,582.51 634.5,580.5C 627.717,583.893 620.717,586.726 613.5,589C 579.269,592.265 561.269,576.765 559.5,542.5C 559.937,515.759 572.937,499.092 598.5,492.5 Z"/></g>
<g><path style="opacity:1" fill="currentColor" d="M 392.5,519.5 C 392.217,518.711 391.717,518.044 391,517.5C 390.172,534.005 390.338,550.339 391.5,566.5C 391.113,571.08 391.947,575.414 394,579.5C 397.051,580.812 400.217,581.812 403.5,582.5C 404.452,584.045 404.785,585.712 404.5,587.5C 394.833,587.5 385.167,587.5 375.5,587.5C 375.34,585.801 375.506,584.134 376,582.5C 379.505,582.085 382.172,580.419 384,577.5C 385.08,564.532 385.58,551.532 385.5,538.5C 385.613,526.454 385.113,514.454 384,502.5C 381.806,500.822 379.306,499.822 376.5,499.5C 376.5,497.833 376.5,496.167 376.5,494.5C 384.5,494.5 392.5,494.5 400.5,494.5C 415.755,514.267 431.255,533.934 447,553.5C 447.906,537.127 447.573,520.794 446,504.5C 443.191,501.433 439.691,499.766 435.5,499.5C 434.369,497.926 434.202,496.259 435,494.5C 444.333,493.167 453.667,493.167 463,494.5C 464.132,499.041 462.299,501.208 457.5,501C 455.232,502.558 454.066,504.724 454,507.5C 453.5,534.498 453.333,561.498 453.5,588.5C 450.482,588.665 447.482,588.498 444.5,588C 426.951,565.29 409.617,542.457 392.5,519.5 Z"/></g>
<g><path style="opacity:1" fill="currentColor" d="M 480.5,587.5 C 480.5,585.833 480.5,584.167 480.5,582.5C 482.099,582.768 483.432,582.434 484.5,581.5C 486.017,581.489 487.184,580.823 488,579.5C 488.667,553.833 488.667,528.167 488,502.5C 485.507,500.664 482.674,499.664 479.5,499.5C 479.5,497.5 479.5,495.5 479.5,493.5C 493.837,493.333 508.171,493.5 522.5,494C 523.406,495.699 523.739,497.533 523.5,499.5C 520.447,499.911 517.447,500.577 514.5,501.5C 513.719,502.729 513.219,504.062 513,505.5C 512.029,530.563 512.362,555.563 514,580.5C 528.68,584.814 538.68,579.814 544,565.5C 545.616,561.653 546.616,557.653 547,553.5C 549,552.167 551,552.167 553,553.5C 553.5,564.828 553.667,576.162 553.5,587.5C 529.167,587.5 504.833,587.5 480.5,587.5 Z"/></g>
<g><path style="opacity:1" fill="currentColor" d="M 245.5,518.5 C 251.135,518.296 254.635,520.963 256,526.5C 259.473,537.989 260.306,549.656 258.5,561.5C 262.587,559.958 266.587,558.125 270.5,556C 275.361,554.681 278.194,556.514 279,561.5C 281.134,573.926 279.134,585.593 273,596.5C 251.895,615.909 244.895,639.575 252,667.5C 255.42,674.514 259.087,681.18 263,687.5C 252.18,677.191 246.18,664.524 245,649.5C 243.197,638.14 243.197,626.806 245,615.5C 249.767,604.566 255.6,594.233 262.5,584.5C 261.998,583.479 261.332,583.312 260.5,584C 254.152,590.536 248.652,597.703 244,605.5C 243.095,600.206 242.595,594.872 242.5,589.5C 243.594,573.959 244.428,558.625 245,543.5C 241.111,560.944 238.778,578.611 238,596.5C 234.358,591.358 230.525,586.358 226.5,581.5C 225.833,580.167 225.167,580.167 224.5,581.5C 230.321,589.475 234.821,598.142 238,607.5C 237.455,625.231 238.122,642.898 240,660.5C 229.923,648.258 220.423,635.591 211.5,622.5C 211.667,622.167 211.833,621.833 212,621.5C 216.939,625.73 222.272,626.397 228,623.5C 228.738,619.739 228.405,616.072 227,612.5C 221.538,603.909 216.871,594.909 213,585.5C 210.196,576.248 209.863,566.915 212,557.5C 212.637,555.697 213.803,554.364 215.5,553.5C 218.255,555.211 220.589,557.378 222.5,560C 223.635,560.749 224.635,560.583 225.5,559.5C 226.613,546.654 230.78,534.987 238,524.5C 240.478,522.361 242.978,520.361 245.5,518.5 Z"/></g>
<g><path style="opacity:1" fill="currentColor" d="M 772.5,518.5 C 779.318,519.165 784.484,522.499 788,528.5C 793.11,538.196 796.276,548.529 797.5,559.5C 798.365,560.583 799.365,560.749 800.5,560C 802.411,557.378 804.745,555.211 807.5,553.5C 809.197,554.364 810.363,555.697 811,557.5C 813.883,570.755 812.216,583.421 806,595.5C 802.919,601.331 799.585,606.998 796,612.5C 791.64,622.067 794.473,626.233 804.5,625C 806.899,624.269 809.065,623.102 811,621.5C 811.167,621.833 811.333,622.167 811.5,622.5C 802.577,635.591 793.077,648.258 783,660.5C 784.878,642.898 785.545,625.231 785,607.5C 788.179,598.142 792.679,589.475 798.5,581.5C 797.833,580.167 797.167,580.167 796.5,581.5C 792.475,586.358 788.642,591.358 785,596.5C 784.222,578.611 781.889,560.944 778,543.5C 778.572,558.625 779.406,573.959 780.5,589.5C 780.405,594.872 779.905,600.206 779,605.5C 774.348,597.703 768.848,590.536 762.5,584C 761.668,583.312 761.002,583.479 760.5,584.5C 767.4,594.233 773.233,604.566 778,615.5C 780.562,633.879 778.896,651.879 773,669.5C 769.646,676.207 765.313,682.207 760,687.5C 763.913,681.18 767.58,674.514 771,667.5C 778.105,639.575 771.105,615.909 750,596.5C 743.866,585.593 741.866,573.926 744,561.5C 744.806,556.514 747.639,554.681 752.5,556C 756.413,558.125 760.413,559.958 764.5,561.5C 762.471,548.55 763.638,535.884 768,523.5C 769.517,521.76 771.017,520.094 772.5,518.5 Z"/></g>
<g><path style="opacity:0.727" fill="currentColor" d="M 392.5,519.5 C 391.504,534.991 391.17,550.658 391.5,566.5C 390.338,550.339 390.172,534.005 391,517.5C 391.717,518.044 392.217,518.711 392.5,519.5 Z"/></g>
<g><path style="opacity:0.927" fill="currentColor" d="M 484.5,581.5 C 483.432,582.434 482.099,582.768 480.5,582.5C 480.5,584.167 480.5,585.833 480.5,587.5C 479.539,585.735 479.205,583.735 479.5,581.5C 481.167,581.5 482.833,581.5 484.5,581.5 Z"/></g>
<g><path style="opacity:1" fill="currentColor" d="M 402.5,604.5 C 472.5,607.129 542.5,607.129 612.5,604.5C 615.167,604.833 617.833,605.167 620.5,605.5C 555.313,624.483 489.646,626.316 423.5,611C 417.352,609.421 411.185,607.921 405,606.5C 403.624,606.316 402.791,605.649 402.5,604.5 Z"/></g>
<g><path style="opacity:1" fill="currentColor" d="M 297.5,618.5 C 300.978,618.184 304.312,618.684 307.5,620C 314.439,627.049 318.273,635.549 319,645.5C 319.201,651.763 319.367,657.929 319.5,664C 320.167,664.667 320.833,664.667 321.5,664C 323.871,661.294 326.537,658.961 329.5,657C 336.832,655.325 340.165,658.325 339.5,666C 337.146,681.438 333.646,696.604 329,711.5C 327.004,729.184 332.338,744.184 345,756.5C 346.289,758.055 346.956,759.721 347,761.5C 335.423,754.591 325.756,745.591 318,734.5C 314.912,727.446 313.912,720.113 315,712.5C 317.045,703.698 319.878,695.198 323.5,687C 323.333,686.5 323.167,686 323,685.5C 318.8,693.782 314.8,702.115 311,710.5C 307.754,702.18 305.754,693.513 305,684.5C 303.734,669.187 302.734,653.854 302,638.5C 300.574,648.564 299.741,658.731 299.5,669C 299.519,672.418 299.853,675.751 300.5,679C 299.975,679.692 299.308,680.192 298.5,680.5C 294.165,675.139 289.498,670.806 284.5,667.5C 290.258,675.096 295.424,683.096 300,691.5C 304.293,704.671 307.626,718.004 310,731.5C 304.476,726.732 299.143,721.732 294,716.5C 294.846,711.075 294.179,705.742 292,700.5C 284.217,690.714 277.217,680.38 271,669.5C 266.777,659.948 266.444,650.281 270,640.5C 271.57,639.642 273.237,638.975 275,638.5C 278.402,639.956 281.569,641.456 284.5,643C 285.588,632.985 289.921,624.818 297.5,618.5 Z"/></g>
<g><path style="opacity:1" fill="currentColor" d="M 717.5,618.5 C 726.387,617.866 732.22,621.866 735,630.5C 736.541,634.602 737.707,638.769 738.5,643C 741.431,641.456 744.598,639.956 748,638.5C 752.939,639.347 755.273,642.347 755,647.5C 756.086,659.581 753.086,670.581 746,680.5C 740.615,686.884 735.615,693.55 731,700.5C 728.821,705.742 728.154,711.075 729,716.5C 723.857,721.732 718.524,726.732 713,731.5C 715.374,718.004 718.707,704.671 723,691.5C 727.576,683.096 732.742,675.096 738.5,667.5C 733.502,670.806 728.835,675.139 724.5,680.5C 723.692,680.192 723.025,679.692 722.5,679C 723.147,675.751 723.481,672.418 723.5,669C 723.259,658.731 722.426,648.564 721,638.5C 720.266,653.854 719.266,669.187 718,684.5C 717.246,693.513 715.246,702.18 712,710.5C 708.2,702.115 704.2,693.782 700,685.5C 699.833,686 699.667,686.5 699.5,687C 703.122,695.198 705.955,703.698 708,712.5C 709.088,720.113 708.088,727.446 705,734.5C 697.244,745.591 687.577,754.591 676,761.5C 676.044,759.721 676.711,758.055 678,756.5C 690.662,744.184 695.996,729.184 694,711.5C 689.354,696.604 685.854,681.438 683.5,666C 682.835,658.325 686.168,655.325 693.5,657C 696.463,658.961 699.129,661.294 701.5,664C 702.449,664.617 703.282,664.451 704,663.5C 701.94,649.188 704.607,635.855 712,623.5C 713.73,621.598 715.563,619.931 717.5,618.5 Z"/></g>
<g><path style="opacity:0.994" fill="currentColor" d="M 462.5,829.5 C 464.955,831.406 466.955,833.739 468.5,836.5C 467.302,836.94 466.135,837.273 465,837.5C 452.191,827.752 439.524,817.752 427,807.5C 422.211,800.138 420.545,792.138 422,783.5C 423.166,779.855 423.833,776.188 424,772.5C 418.897,782.262 417.23,792.595 419,803.5C 407.715,792.265 400.048,778.932 396,763.5C 395.798,752.073 396.465,740.74 398,729.5C 395.419,738.39 393.086,747.39 391,756.5C 389.667,753.833 388.333,751.167 387,748.5C 382.181,732.228 377.515,715.894 373,699.5C 372.333,702.5 372.333,705.5 373,708.5C 376.344,721.217 379.177,734.051 381.5,747C 381.167,747.833 380.833,748.667 380.5,749.5C 375.602,746.384 370.602,743.884 365.5,742C 373.29,747.789 380.457,754.289 387,761.5C 392.283,774.736 399.116,787.069 407.5,798.5C 407.167,798.833 406.833,799.167 406.5,799.5C 399.834,796.169 393.501,792.336 387.5,788C 387.264,783.646 385.764,779.812 383,776.5C 372.428,767.863 362.428,758.529 353,748.5C 347.919,741.258 345.253,733.258 345,724.5C 345.374,723.584 345.874,722.75 346.5,722C 350.848,721.585 355.181,721.751 359.5,722.5C 358.78,716.346 358.114,710.179 357.5,704C 357.513,697.781 359.013,691.948 362,686.5C 366.482,680.131 371.648,679.298 377.5,684C 379.333,686.5 381.167,689 383,691.5C 385.676,698.2 388.342,704.867 391,711.5C 393.842,706.49 398.008,703.156 403.5,701.5C 408.139,703.068 410.639,706.402 411,711.5C 411.673,723.709 411.173,735.876 409.5,748C 410.083,753.492 410.583,758.992 411,764.5C 411.424,766.615 412.591,767.448 414.5,767C 417.816,761.352 422.149,756.686 427.5,753C 435.246,751.758 438.246,755.092 436.5,763C 434.852,774.789 434.352,786.623 435,798.5C 435.756,805.125 438.59,810.625 443.5,815C 450.262,819.369 456.595,824.202 462.5,829.5 Z"/></g>
<g><path style="opacity:0.994" fill="currentColor" d="M 651.5,680.5 C 658.185,682.352 662.351,686.686 664,693.5C 664.956,696.93 665.456,700.43 665.5,704C 664.886,710.179 664.22,716.346 663.5,722.5C 676.725,717.893 681.058,722.06 676.5,735C 674.999,739.836 672.832,744.336 670,748.5C 660.572,758.529 650.572,767.863 640,776.5C 637.236,779.812 635.736,783.646 635.5,788C 629.499,792.336 623.166,796.169 616.5,799.5C 616.167,799.167 615.833,798.833 615.5,798.5C 623.884,787.069 630.717,774.736 636,761.5C 642.543,754.289 649.71,747.789 657.5,742C 652.398,743.884 647.398,746.384 642.5,749.5C 642.167,748.667 641.833,747.833 641.5,747C 643.823,734.051 646.656,721.217 650,708.5C 650.667,705.5 650.667,702.5 650,699.5C 645.485,715.894 640.819,732.228 636,748.5C 634.667,751.167 633.333,753.833 632,756.5C 629.914,747.39 627.581,738.39 625,729.5C 626.535,740.74 627.202,752.073 627,763.5C 622.952,778.932 615.285,792.265 604,803.5C 605.77,792.595 604.103,782.262 599,772.5C 599.167,776.188 599.834,779.855 601,783.5C 602.455,792.138 600.789,800.138 596,807.5C 583.476,817.752 570.809,827.752 558,837.5C 556.865,837.273 555.698,836.94 554.5,836.5C 561.406,827.767 569.739,820.6 579.5,815C 586.362,807.581 589.362,798.748 588.5,788.5C 588.04,779.984 587.373,771.484 586.5,763C 584.754,755.092 587.754,751.758 595.5,753C 600.851,756.686 605.184,761.352 608.5,767C 610.409,767.448 611.576,766.615 612,764.5C 612.417,758.992 612.917,753.492 613.5,748C 611.827,735.876 611.327,723.709 612,711.5C 612.361,706.402 614.861,703.068 619.5,701.5C 624.992,703.156 629.158,706.49 632,711.5C 634.658,704.867 637.324,698.2 640,691.5C 642.437,686.226 646.271,682.56 651.5,680.5 Z"/></g>
<g><path style="opacity:0.004" fill="currentColor" d="M 462.5,828.5 C 463.833,829.167 463.833,829.167 462.5,828.5 Z"/></g>
<g><path style="opacity:0.004" fill="currentColor" d="M 457.5,836.5 C 458.833,837.167 458.833,837.167 457.5,836.5 Z"/></g>
<g><path style="opacity:0.004" fill="currentColor" d="M 565.5,837.5 C 564.833,836.167 564.833,836.167 565.5,837.5 Z"/></g>
<g><path style="opacity:0.004" fill="currentColor" d="M 461.5,845.5 C 460.833,844.167 460.833,844.167 461.5,845.5 Z"/></g>
<g><path style="opacity:0.012" fill="currentColor" d="M 463.5,844.5 C 464.833,845.167 464.833,845.167 463.5,844.5 Z"/></g>
<g><path style="opacity:0.012" fill="currentColor" d="M 558.5,844.5 C 559.833,845.167 559.833,845.167 558.5,844.5 Z"/></g>
<g><path style="opacity:0.004" fill="currentColor" d="M 561.5,844.5 C 562.833,845.167 562.833,845.167 561.5,844.5 Z"/></g>
<g><path style="opacity:0.004" fill="currentColor" d="M 461.5,845.5 C 462.833,846.167 462.833,846.167 461.5,845.5 Z"/></g>
<g><path style="opacity:0.004" fill="currentColor" d="M 561.5,845.5 C 560.833,846.167 560.833,846.167 561.5,845.5 Z"/></g>
</svg>
